# xmcd
#
# Track frame offsets:
#	150
#	16187
#	65945
#	118335
#	167759
#	207276
#
# Disc length: 3141 seconds
#
# Revision: 1
# Processed by: cddbd v1.5.2PL0 Copyright (c) Steve Scherf et al.
# Submitted via: audiograbber 1.83.01
#
DISCID=550c4306
DTITLE=Grateful Dead - 78-12-19A Memorial Coliseum, State Fairgrounds, Jackson 
DTITLE=MS
DYEAR=1900
DGENRE=
TTITLE0=Drums
TTITLE1=The Other One
TTITLE2=Stella Blue
TTITLE3=Not Fade Away
TTITLE4=Around and Around
TTITLE5=Casey Jones
EXTD=
EXTT0=
EXTT1=
EXTT2=
EXTT3=
EXTT4=
EXTT5=
PLAYORDER=
